<svg width="60" height="34" viewBox="0 0 60 34" xmlns="http://www.w3.org/2000/svg">
  <!-- Верхние колёса -->
  <rect x="11" y="4" width="8" height="2" rx="1" fill="#222" />
  <rect x="41" y="4" width="8" height="2" rx="1" fill="#222" />

  <!-- Нижние колёса -->
  <rect x="11" y="28" width="8" height="2" rx="1" fill="#222" />
  <rect x="41" y="28" width="8" height="2" rx="1" fill="#222" />

  <!-- Корпус -->
  <rect x="5" y="6" width="50" height="22" rx="4" fill="currentColor" />

  <!-- Передние фары -->
  <circle cx="51" cy="10" r="2" fill="white" />
  <circle cx="51" cy="24" r="2" fill="white" />

  <!-- Задние фары -->
  <rect x="7" y="9" width="2" height="4" rx="0.5" fill="red" />
  <rect x="7" y="21" width="2" height="4" rx="0.5" fill="red" />

  <!-- Заднее стекло -->
  <rect x="14" y="12" width="6" height="10" rx="1.5" fill="#cce8ff" />

  <!-- Лобовое стекло -->
  <rect x="39.4" y="11" width="7.2" height="12" rx="1.5" fill="#cce8ff" />

  <!-- Тонкие белые линии -->
  <rect x="19.9" y="9.5" width="19.5" height="0.3" rx="0.15" fill="white" />
  <rect x="19.9" y="24" width="19.5" height="0.3" rx="0.15" fill="white" />
</svg>
